<?xml version="1.0" encoding="UTF-8"?><svg xmlns="http://www.w3.org/2000/svg" xmlns:xlink="http://www.w3.org/1999/xlink" viewBox="0 0 100 100"><defs><style>.cls-1,.cls-2,.cls-3{fill:none;}.cls-2{stroke:#be8e58;stroke-width:3px;}.cls-2,.cls-3{stroke-linecap:round;stroke-linejoin:round;}.cls-3{stroke:#826a33;stroke-width:4px;}.cls-4{isolation:isolate;}.cls-5{fill:url(#_称未設定グラデーション_12);}.cls-6{fill:#020202;mix-blend-mode:overlay;opacity:.3;}</style><linearGradient id="_称未設定グラデーション_12" x1="41.07" y1="67.44" x2="81.9" y2="11.4" gradientTransform="matrix(1, 0, 0, 1, 0, 0)" gradientUnits="userSpaceOnUse"><stop offset="0" stop-color="#edbf57"/><stop offset="1" stop-color="#ffd094"/></linearGradient></defs><g class="cls-4"><g id="_イヤー_1"><g><path class="cls-5" d="M34.2,84.29c44.01,6.59,62.36-34.03,45.95-60.82-2.79-4.55-7.4-7.82-12.71-8.38-9.36-.98-16.34,6.05-25.26,16.2-3.73,4.25-14.99,7-19.43,10.49-15.76,12.37-9.51,39.36,11.46,42.5Z"/><path class="cls-6" d="M80.47,24.01c8.95,26.12-9.86,58.83-49.69,52.87-7.09-1.06-12.5-4.86-15.94-9.9,2.34,8.48,9.07,15.77,19.36,17.31,43.71,6.55,62.1-33.48,46.27-60.27Z"/><path class="cls-2" d="M52.73,37.89c.03,1.82,2.2,2.52,4.4,2.13"/><path class="cls-2" d="M34.76,71.47c.92-2.19-1.86-5.41-4.16-4.83"/><path class="cls-2" d="M68.58,61.86c-1.5-.6-3.41,.37-4.47,1.79"/><path class="cls-3" d="M34.2,84.29c44.01,6.59,62.36-34.03,45.95-60.82-2.79-4.55-7.4-7.82-12.71-8.38-9.36-.98-16.34,6.05-25.26,16.2-3.73,4.25-14.99,7-19.43,10.49-15.76,12.37-9.51,39.36,11.46,42.5Z"/></g><rect class="cls-1" width="100" height="100"/></g></g></svg>